<svg xmlns="http://www.w3.org/2000/svg" version="1.1" xmlns:xlink="http://www.w3.org/1999/xlink" xmlns:svgjs="http://svgjs.dev/svgjs" width="100%" height="100%" viewBox="0 0 1000 600"><rect width="1000" height="600" x="0" y="0" fill="#000000"/><g><circle r="166.66666666666666" cx="284.77736918131507" cy="306.99960873882355" fill="#ffffff" transform="matrix(1.0583289918133716,0,0,1.0583289918133714,0,-24.906576655098945)"/><path d="M162.8941901095852 284.14515840338356Q162.8941901095852 288.3637727557157 166.26473250448967 291.82129688984344Q169.63527489939412 295.2570755891654 176.5068322980381 299.95408950722583L176.5068322980381 299.95408950722583Q184.96580643750804 305.76012060038386 189.35838426828678 310.4571345184444Q193.7292166642597 315.1541484365048 193.7292166642597 322.02570583514876L193.7292166642597 322.02570583514876Q193.7292166642597 328.1361730155885 190.14121992129685 333.4638045430181Q186.53147774352817 338.79143607044773 179.9643564321659 341.98801498690557Q173.37548968599782 345.2063393381692 164.9382609813337 345.2063393381692L164.9382609813337 345.2063393381692Q156.78372292914548 345.2063393381692 149.49900226919064 341.2921610731188Q142.23602704404163 337.3779828080685 138.7785029099138 331.26751562762877L138.7785029099138 331.26751562762877L152.23892705472588 320.4600345291286Q158.50161227880648 332.2025693242797 165.09047902497457 339.72648976709866L165.09047902497457 339.72648976709866Q167.7434220712865 337.6824188953501 169.5482931601708 334.9424941098149Q171.3531642490551 332.2025693242797 171.3531642490551 329.5496262779677L171.3531642490551 329.5496262779677Q171.3531642490551 325.157048447189 168.1348398977915 321.9604695307312Q164.9382609813337 318.74214517946757 158.19717619152476 314.19734930504796L158.19717619152476 314.19734930504796Q152.71732662045426 310.6093525620852 149.43376596477313 307.9346640809674Q146.150205309092 305.28172103465556 143.86693465447928 301.51976081324597Q141.60540943467242 297.7578005918365 141.60540943467242 293.0607866737761L141.60540943467242 293.0607866737761Q141.60540943467242 287.27650101542383 145.43260596049942 281.9488694879942Q149.28154792113227 276.6212379605646 156.15310531977624 273.3376773048834Q163.04640815322603 270.05411664920234 171.80981837997768 270.05411664920234L171.80981837997768 270.05411664920234Q178.55090316978664 270.05411664920234 184.574388611003 272.94625947837835Q190.5978740522194 275.8384023075545 194.3598342736289 280.2309801383333L194.3598342736289 280.2309801383333L182.1606453475553 292.27795102076595Q174.63672490473627 282.73170514100434 165.5471331558971 275.22953013299116L165.5471331558971 275.22953013299116Q162.8941901095852 278.66530883231314 162.8941901095852 284.14515840338356L162.8941901095852 284.14515840338356ZM157.89274010424305 342.8578323791389L157.71877662579638 342.8578323791389L157.89274010424305 342.8578323791389ZM269.8382384846833 337.8563823737968L275.47030609939463 338.3130365047193L275.47030609939463 342.8578323791389L241.9605910636024 342.8578323791389L241.9605910636024 338.3130365047193L247.74487672195463 337.8563823737968L247.74487672195463 304.80332146892715Q247.74487672195463 297.9317640702832 243.9176801961276 294.1698038488737Q240.0904836703006 290.4078436274642 233.34939888049166 290.2556255838233L233.34939888049166 290.2556255838233L228.17398539670282 295.40929363280634L227.86954930942113 337.8563823737968L233.65383496777332 338.3130365047193L233.65383496777332 342.8578323791389L199.99190188834027 342.8578323791389L199.99190188834027 338.3130365047193L205.7979329814983 337.8563823737968L205.0150973284882 244.06832205622908L199.05684819168934 245.3078118401617L197.49117688566918 240.78476140054795L226.45609604704185 231.99960573899048L228.6523849624312 235.7615659604L228.17398539670282 287.90711862479316L240.87331932331068 269.7496805619206Q255.74719673050203 269.7496805619206 262.79271760759264 276.7952014390113Q269.8382384846833 283.84072231610185 269.8382384846833 298.5406362448466L269.8382384846833 298.5406362448466L269.8382384846833 337.8563823737968ZM316.0255420122775 270.05411664920234Q331.68225507247894 270.05411664920234 341.22850095224067 279.29592644168235Q350.7747468320024 288.53773623416237 350.7747468320024 305.5861571219373L350.7747468320024 305.5861571219373Q350.7747468320024 312.95785952111544 348.187040090108 320.7862160512161Q345.5993333482136 328.6145725813168 340.59788334287146 334.55107628330984L340.59788334287146 334.55107628330984Q335.59643333752933 339.42205367981694 328.94233028694373 342.31419650899306Q322.2882272363581 345.2063393381692 314.91652483717996 345.2063393381692L314.91652483717996 345.2063393381692Q299.2598117769785 345.2063393381692 289.71356589721677 335.9645295456892Q280.1673200174551 326.72271975320916 280.1673200174551 309.67429886543425L280.1673200174551 309.67429886543425Q280.1673200174551 302.4548145098969 282.820263063767 294.6264579797962Q285.49495154488477 286.79810144969554 290.4964015502269 280.8615977477025L290.4964015502269 280.8615977477025Q295.497851555569 276.01236578600117 302.1519546061546 273.0332412176017Q308.8060576567402 270.05411664920234 316.0255420122775 270.05411664920234L316.0255420122775 270.05411664920234ZM302.7173359111064 302.1503784226153Q302.7173359111064 317.02425582980663 308.58860330868185 324.3742127941789Q314.4598707062574 331.7459151933572 325.8762239793209 333.1593684557364L325.8762239793209 333.1593684557364Q326.98524115441853 328.462354537676 327.59411332898196 322.65632344451797Q328.2247309383512 316.8720377861657 328.2247309383512 313.11007756475624L328.2247309383512 313.11007756475624Q328.2247309383512 298.0839821139241 322.3534635407756 290.79926145396917Q316.4821961432001 283.51454079401435 305.2180609137774 282.101087531635L305.2180609137774 282.101087531635Q304.1090437386798 286.97206492814223 303.41318982489304 292.75635058649436Q302.7173359111064 298.5406362448466 302.7173359111064 302.1503784226153L302.7173359111064 302.1503784226153ZM400.0933929716369 270.05411664920234Q409.1829847204761 270.05411664920234 416.1415238583434 274.2074946971169Q423.1000629962106 278.36087274503143 426.94900495684345 285.62384797018035Q430.7762014826706 292.9085686301353 430.7762014826706 302.1503784226153L430.7762014826706 302.1503784226153Q430.7762014826706 310.13095299635677 428.1884947407762 319.13356300597263Q425.6225334336876 328.1361730155885 421.8605732122781 332.9854049772897L421.8605732122781 332.9854049772897Q418.8814486438786 337.2257647644276 411.05309211377784 341.20517933389544Q403.22473558367716 345.2063393381692 397.89710405624754 345.2063393381692L397.89710405624754 345.2063393381692Q393.98292579119715 345.2063393381692 385.21951556444554 343.79288607578985L385.21951556444554 343.79288607578985L385.52395165172726 376.9981650243004L397.5926679689658 377.45481915522294L397.5926679689658 381.99961502964254L356.102378359432 381.99961502964254L356.102378359432 377.45481915522294L361.88666401778426 376.9981650243004L362.6694996707943 281.4922153570717L356.7329959688012 282.88392318464514L355.16732466278114 278.18690926658473L379.4352299060933 270.53251621493064L384.4366799114355 288.3637727557157L400.0933929716369 270.05411664920234ZM404.4859708024157 333.3115864993773Q408.400149067466 324.3742127941789 408.400149067466 311.5444062587361L408.400149067466 311.5444062587361Q408.400149067466 304.34666733800464 406.0516421084357 299.0190358105749Q403.70313514940557 293.6914042831453 399.85419318877274 290.8862431931925Q396.0269966629457 288.05933666843396 391.634418832167 288.05933666843396L391.634418832167 288.05933666843396L384.74111599871713 294.9526395018837L385.06729752080463 326.72271975320916Q395.3963790535765 331.59369714971626 404.4859708024157 333.3115864993773L404.4859708024157 333.3115864993773Z " fill="#" transform="matrix(1.0583289918133716,0,0,1.0583289918133714,0,-24.906576655098945)"/><path d="M558.8930457004055 284.14515840338356Q558.8930457004055 288.3637727557157 562.26358809531 291.82129688984344Q565.6341304902144 295.2570755891654 572.5056878888583 299.95408950722583L572.5056878888583 299.95408950722583Q580.9646620283283 305.76012060038386 585.357239859107 310.4571345184444Q589.72807225508 315.1541484365048 589.72807225508 322.02570583514876L589.72807225508 322.02570583514876Q589.72807225508 328.1361730155885 586.1400755121172 333.4638045430181Q582.5303333343485 338.79143607044773 575.9632120229862 341.98801498690557Q569.3743452768181 345.2063393381692 560.9371165721541 345.2063393381692L560.9371165721541 345.2063393381692Q552.7825785199657 345.2063393381692 545.497857860011 341.2921610731188Q538.234882634862 337.3779828080685 534.7773585007342 331.26751562762877L534.7773585007342 331.26751562762877L548.2377826455462 320.4600345291286Q554.5004678696267 332.2025693242797 561.0893346157948 339.72648976709866L561.0893346157948 339.72648976709866Q563.7422776621067 337.6824188953501 565.547148750991 334.9424941098149Q567.3520198398754 332.2025693242797 567.3520198398754 329.5496262779677L567.3520198398754 329.5496262779677Q567.3520198398754 325.157048447189 564.1336954886118 321.9604695307312Q560.9371165721541 318.74214517946757 554.196031782345 314.19734930504796L554.196031782345 314.19734930504796Q548.7161822112746 310.6093525620852 545.4326215555934 307.9346640809674Q542.1490608999122 305.28172103465556 539.8657902452996 301.51976081324597Q537.6042650254926 297.7578005918365 537.6042650254926 293.0607866737761L537.6042650254926 293.0607866737761Q537.6042650254926 287.27650101542383 541.4314615513197 281.9488694879942Q545.2804035119525 276.6212379605646 552.1519609105965 273.3376773048834Q559.0452637440463 270.05411664920234 567.8086739707979 270.05411664920234L567.8086739707979 270.05411664920234Q574.5497587606069 270.05411664920234 580.5732442018233 272.94625947837835Q586.5967296430397 275.8384023075545 590.3586898644492 280.2309801383333L590.3586898644492 280.2309801383333L578.1595009383756 292.27795102076595Q570.6355804955565 282.73170514100434 561.5459887467174 275.22953013299116L561.5459887467174 275.22953013299116Q558.8930457004055 278.66530883231314 558.8930457004055 284.14515840338356L558.8930457004055 284.14515840338356ZM553.8915956950634 342.8578323791389L553.7176322166167 342.8578323791389L553.8915956950634 342.8578323791389ZM665.8370940755035 337.8563823737968L671.4691616902151 338.3130365047193L671.4691616902151 342.8578323791389L637.9594466544227 342.8578323791389L637.9594466544227 338.3130365047193L643.7437323127749 337.8563823737968L643.7437323127749 304.80332146892715Q643.7437323127749 297.9317640702832 639.9165357869479 294.1698038488737Q636.0893392611208 290.4078436274642 629.348254471312 290.2556255838233L629.348254471312 290.2556255838233L624.1728409875232 295.40929363280634L623.8684049002414 337.8563823737968L629.6526905585936 338.3130365047193L629.6526905585936 342.8578323791389L595.9907574791605 342.8578323791389L595.9907574791605 338.3130365047193L601.7967885723185 337.8563823737968L601.0139529193085 244.06832205622908L595.0557037825097 245.3078118401617L593.4900324764894 240.78476140054795L622.4549516378622 231.99960573899048L624.6512405532515 235.7615659604L624.1728409875232 287.90711862479316L636.8721749141309 269.7496805619206Q651.7460523213224 269.7496805619206 658.7915731984131 276.7952014390113Q665.8370940755035 283.84072231610185 665.8370940755035 298.5406362448466L665.8370940755035 298.5406362448466L665.8370940755035 337.8563823737968ZM712.0243976030979 270.05411664920234Q727.6811106632993 270.05411664920234 737.227356543061 279.29592644168235Q746.7736024228227 288.53773623416237 746.7736024228227 305.5861571219373L746.7736024228227 305.5861571219373Q746.7736024228227 312.95785952111544 744.1858956809283 320.7862160512161Q741.5981889390339 328.6145725813168 736.5967389336918 334.55107628330984L736.5967389336918 334.55107628330984Q731.5952889283496 339.42205367981694 724.9411858777639 342.31419650899306Q718.2870828271784 345.2063393381692 710.9153804280002 345.2063393381692L710.9153804280002 345.2063393381692Q695.2586673677988 345.2063393381692 685.7124214880371 335.9645295456892Q676.1661756082754 326.72271975320916 676.1661756082754 309.67429886543425L676.1661756082754 309.67429886543425Q676.1661756082754 302.4548145098969 678.8191186545873 294.6264579797962Q681.4938071357051 286.79810144969554 686.4952571410472 280.8615977477025L686.4952571410472 280.8615977477025Q691.4967071463893 276.01236578600117 698.1508101969748 273.0332412176017Q704.8049132475605 270.05411664920234 712.0243976030979 270.05411664920234L712.0243976030979 270.05411664920234ZM698.7161915019267 302.1503784226153Q698.7161915019267 317.02425582980663 704.587458899502 324.3742127941789Q710.4587262970776 331.7459151933572 721.8750795701412 333.1593684557364L721.8750795701412 333.1593684557364Q722.984096745239 328.462354537676 723.5929689198022 322.65632344451797Q724.2235865291714 316.8720377861657 724.2235865291714 313.11007756475624L724.2235865291714 313.11007756475624Q724.2235865291714 298.0839821139241 718.352319131596 290.79926145396917Q712.4810517340204 283.51454079401435 701.2169165045977 282.101087531635L701.2169165045977 282.101087531635Q700.1078993295 286.97206492814223 699.4120454157132 292.75635058649436Q698.7161915019267 298.5406362448466 698.7161915019267 302.1503784226153L698.7161915019267 302.1503784226153ZM796.0922485624571 270.05411664920234Q805.1818403112964 270.05411664920234 812.1403794491637 274.2074946971169Q819.098918587031 278.36087274503143 822.9478605476638 285.62384797018035Q826.7750570734909 292.9085686301353 826.7750570734909 302.1503784226153L826.7750570734909 302.1503784226153Q826.7750570734909 310.13095299635677 824.1873503315965 319.13356300597263Q821.6213890245078 328.1361730155885 817.8594288030984 332.9854049772897L817.8594288030984 332.9854049772897Q814.880304234699 337.2257647644276 807.0519477045982 341.20517933389544Q799.2235911744974 345.2063393381692 793.8959596470679 345.2063393381692L793.8959596470679 345.2063393381692Q789.9817813820175 345.2063393381692 781.2183711552659 343.79288607578985L781.2183711552659 343.79288607578985L781.5228072425475 376.9981650243004L793.5915235597861 377.45481915522294L793.5915235597861 381.99961502964254L752.1012339502524 381.99961502964254L752.1012339502524 377.45481915522294L757.8855196086045 376.9981650243004L758.6683552616146 281.4922153570717L752.7318515596216 282.88392318464514L751.1661802536014 278.18690926658473L775.4340854969137 270.53251621493064L780.4355355022558 288.3637727557157L796.0922485624571 270.05411664920234ZM800.4848263932361 333.3115864993773Q804.3990046582862 324.3742127941789 804.3990046582862 311.5444062587361L804.3990046582862 311.5444062587361Q804.3990046582862 304.34666733800464 802.0504976992561 299.0190358105749Q799.7019907402259 293.6914042831453 795.8530487795931 290.8862431931925Q792.0258522537661 288.05933666843396 787.6332744229874 288.05933666843396L787.6332744229874 288.05933666843396L780.7399715895374 294.9526395018837L781.066153111625 326.72271975320916Q791.3952346443969 331.59369714971626 800.4848263932361 333.3115864993773L800.4848263932361 333.3115864993773Z " fill="black" transform="matrix(1.0583289918133716,0,0,1.0583289918133714,0,-24.906576655098945)"/></g></svg>